<svg width="333" height="121" viewBox="0 0 333 121" fill="none" xmlns="http://www.w3.org/2000/svg">
<g opacity="0.5">
<path d="M213.316 41.5287L166.676 113.347H153.289L165.978 93.8091L157.379 41.5287H169.522L175.669 78.8737L199.929 41.5287H213.316Z" fill="white"/>
<path fill-rule="evenodd" clip-rule="evenodd" d="M45.3434 35.3507C45.3685 33.8228 45.6017 32.3074 46.0349 30.8469C46.7224 29.2173 47.5536 27.6524 48.5188 26.1712C49.723 24.3207 51.1147 22.602 52.6721 21.0432L53.5361 20.2099C57.701 16.1782 63.0492 13.6186 68.7776 12.9153C71.1111 12.6114 73.4822 12.8407 75.7159 13.5863C77.9493 14.3319 79.9884 15.5747 81.6824 17.2228L82.038 17.6074C82.4571 18.0176 82.8254 18.4664 83.1557 18.8894C83.4985 19.351 83.8544 19.8509 84.1972 20.3509C84.5626 20.8813 85.122 21.2435 85.7519 21.3577C86.064 21.4142 86.3839 21.4082 86.6936 21.3399C87.0033 21.2717 87.2966 21.1425 87.5567 20.9599C87.8168 20.7772 88.039 20.5446 88.2101 20.2753C88.3812 20.0061 88.4981 19.7054 88.5541 19.3905C88.6103 19.0756 88.6042 18.7527 88.5367 18.4402C88.4927 18.2368 88.423 18.0404 88.3299 17.8556C93.7927 24.9402 95.4553 35.2461 92.8733 46.0937C89.1518 61.5549 74.1768 70.6572 55.6834 70.6827L36.8344 70.6956L30.0393 96.8485H16.6646L25.5913 62.619H15.1139C12.813 62.619 10.9478 60.7364 10.9478 58.414C10.9478 56.3803 12.3782 54.6838 14.2788 54.2935C14.035 54.4117 13.8124 54.5709 13.6207 54.7642C13.3978 54.9893 13.221 55.2563 13.1003 55.5505C12.9797 55.8444 12.9176 56.1593 12.9176 56.4775C12.9176 56.9567 13.0584 57.4254 13.3222 57.8238C13.5859 58.2222 13.9609 58.5328 14.3995 58.7163C14.6683 58.8286 14.9536 58.8914 15.2414 58.9007H17.7055L41.4952 57.7339L41.3047 57.5287C40.3575 56.4491 39.5071 55.2864 38.7644 54.0546H27.8249L28.6773 50.786H10.1476C7.84679 50.786 5.98158 48.9033 5.98158 46.581C5.98158 44.5551 7.40104 42.8638 9.29088 42.465C9.06229 42.5804 8.85134 42.7329 8.66722 42.9187C8.21703 43.373 7.96411 43.9895 7.96411 44.632C7.96411 45.1112 8.10491 45.5796 8.36868 45.9783C8.63248 46.3767 9.00738 46.6872 9.44603 46.8705C9.73068 46.9896 10.0339 47.0516 10.3389 47.0549V47.0681L35.2973 46.3117C34.9472 44.9745 34.7387 43.6037 34.6749 42.222H30.9107L31.7332 39.068H4.16606C1.86521 39.068 0 37.1854 0 34.863C0 32.8293 1.43042 31.1328 3.33117 30.7425C3.0887 30.8598 2.86524 31.0185 2.67148 31.2141C2.22129 31.6685 1.96837 32.2848 1.96837 32.9274C1.96837 33.4066 2.10916 33.8751 2.37294 34.2735C2.63672 34.672 3.01164 34.9826 3.45029 35.166C3.7389 35.2866 4.04657 35.349 4.3559 35.3507H45.3434ZM82.6731 42.581C82.951 42.0111 83.4385 41.5732 84.0316 41.361C84.6249 41.1484 85.2769 41.1786 85.8482 41.4444C86.4198 41.7102 86.8659 42.1911 87.0915 42.7842C87.3168 43.3772 87.3038 44.0359 87.055 44.6193C85.4349 48.1171 83.1473 51.258 80.3234 53.8627C76.3203 57.5797 71.4257 60.1779 66.1231 61.4009C61.0318 62.6418 55.6781 62.1644 50.8813 60.0418C48.4446 58.9016 46.2558 57.2849 44.4418 55.2856C42.8061 53.4069 41.4694 51.2835 40.479 48.9911C39.5147 46.8917 38.9378 44.6327 38.7769 42.3246C38.7899 41.7043 39.037 41.1124 39.4677 40.6698C39.8984 40.2272 40.4801 39.967 41.0941 39.9424C41.7084 39.9181 42.3087 40.1309 42.7724 40.5378C43.2365 40.9447 43.5291 41.5149 43.5909 42.1323C43.7208 43.828 44.1509 45.4869 44.8608 47.0296C45.6134 48.8208 46.6328 50.4852 47.884 51.9652C49.2685 53.4909 50.9393 54.7242 52.7992 55.5933C56.6575 57.2846 60.9596 57.6494 65.0433 56.6319C69.5165 55.5833 73.6412 53.3735 77.0082 50.2217C79.3745 48.0743 81.2993 45.4781 82.6731 42.581ZM57.1279 30.4811C57.757 30.3681 58.3155 30.0076 58.681 29.4789L58.6554 29.5429C59.2677 28.6787 59.9704 27.8836 60.7514 27.1713C62.6701 25.3537 64.9978 24.0338 67.5337 23.3252C68.5418 23.0005 69.6076 22.8999 70.658 23.0305C71.7082 23.1611 72.718 23.5197 73.6179 24.0816C73.9877 24.3474 74.3285 24.6526 74.6339 24.9918C75.4418 26.0072 76.0048 27.1982 76.278 28.4709C76.5514 29.7436 76.5277 31.063 76.2089 32.3249C75.474 35.8558 73.709 39.0838 71.1409 41.594L70.5696 42.1452C68.3484 44.3585 65.4972 45.8153 62.4152 46.3115C61.3149 46.4857 60.1896 46.4005 59.1276 46.0624C58.0655 45.7243 57.0951 45.1427 56.293 44.3628L56.1152 44.1708C55.6509 43.6612 55.2617 43.0871 54.9595 42.4657C54.6393 41.8076 54.4087 41.1089 54.2736 40.3888C54.1326 39.7758 53.7623 39.2419 53.24 38.8982C52.7176 38.5549 52.084 38.429 51.4715 38.5464C50.8592 38.6641 50.3157 39.0165 49.9547 39.5297C49.5939 40.0425 49.4439 40.6766 49.5359 41.2989C49.7337 42.466 50.0884 43.6003 50.5901 44.6708C51.0953 45.7079 51.7455 46.6663 52.5207 47.5167L52.8255 47.8372C54.1355 49.1489 55.7297 50.1351 57.482 50.7179C59.2346 51.301 61.0974 51.4647 62.9233 51.1962C67.0212 50.5841 70.8245 48.687 73.7957 45.7732L74.5068 45.0809C77.8043 41.8644 80.0621 37.7177 80.9846 33.1839C81.4536 31.1763 81.4472 29.0855 80.9661 27.0809C80.4852 25.0762 79.543 23.2142 78.2158 21.6458C77.67 21.0464 77.061 20.5091 76.3995 20.0433C74.9413 19.0696 73.2893 18.4307 71.56 18.1715C69.8306 17.9123 68.0662 18.0393 66.3907 18.5433C63.0709 19.4485 60.0194 21.1557 57.4997 23.5175C56.4658 24.4735 55.5375 25.5395 54.7309 26.6969C54.3652 27.2256 54.2228 27.8792 54.3348 28.514C54.4467 29.1487 54.804 29.7125 55.3278 30.0814C55.8516 30.4503 56.4992 30.5941 57.1279 30.4811Z" fill="white"/>
<path d="M33.9665 30.5047H40.9399C40.9702 30.3735 41.0114 30.2448 41.0631 30.1198C41.9068 27.908 42.9739 25.7901 44.2471 23.7995H35.7151L33.9665 30.5047Z" fill="white"/>
<path d="M36.8586 19.415H47.3123C47.3821 19.415 47.4515 19.4184 47.5204 19.4251C48.069 18.7957 48.6393 18.1852 49.2302 17.5946L50.2209 16.6331C54.6651 12.373 60.2294 9.52139 66.2264 8.40277H39.7305L36.8586 19.415Z" fill="white"/>
<path fill-rule="evenodd" clip-rule="evenodd" d="M33.9637 30.5048H40.9426C40.9729 30.3736 41.0141 30.2448 41.0658 30.1199C41.9095 27.908 42.9766 25.7901 44.2498 23.7995H23.5506C22.9745 23.7995 22.4221 23.5685 22.0147 23.1574C21.6075 22.7463 21.3786 22.1887 21.3786 21.6072C21.3786 21.0258 21.6075 20.4682 22.0147 20.0571C22.1504 19.9202 22.3022 19.8032 22.4655 19.7082C20.6439 19.9651 19.242 21.5441 19.242 23.4535C19.242 25.5422 20.9196 27.2354 22.9889 27.2354H34.8165L33.9637 30.5048ZM36.8566 19.415H47.315C47.3848 19.415 47.4542 19.4184 47.5231 19.4251C48.0717 18.7958 48.642 18.1852 49.2329 17.5946L50.2236 16.6331C54.6678 12.373 60.2322 9.52137 66.2292 8.40277H39.7292L36.8566 19.415Z" fill="white"/>
<path fill-rule="evenodd" clip-rule="evenodd" d="M130.773 77.3153C130.858 77.1862 130.943 77.0559 131.028 76.9242C135.093 70.604 136.82 61.54 132.082 56.0145C129.771 53.2884 126.456 51.9421 122.137 51.9764C111.061 52.0534 103.085 61.2195 101.891 71.7833C100.913 80.3216 105.6 86.6163 114.377 86.5648L114.389 86.5522C120.809 86.5522 125.775 83.9238 129.657 78.8767C130.039 78.3808 130.411 77.8603 130.773 77.3153ZM152.822 41.5755H140.908L138.876 49.3058C136.996 44.0113 129.871 40.1652 123.203 40.1652C112.482 40.1652 102.105 46.4725 95.8056 55.8699C88.4769 66.754 87.3337 80.3819 94.0148 90.2406C97.6727 95.6121 103.109 98.3555 110.374 98.3555C117.436 98.3555 122.339 95.7145 127.991 90.9454L126.467 96.9583H138.622L152.822 41.5755Z" fill="white"/>
<path d="M300.297 53.9274C302.736 52.8387 305.375 52.2796 308.043 52.2864C309.949 52.2275 311.845 52.5407 313.632 53.2093C315.27 53.8542 316.735 54.8761 317.912 56.1937C319.09 57.5112 319.948 59.0881 320.415 60.7988C320.9 62.6808 321.024 64.6388 320.784 66.5679C320.52 69.0613 319.867 71.4971 318.852 73.7856C317.805 76.1207 316.413 78.2819 314.725 80.1957C313.023 82.1681 310.903 83.7318 308.525 84.7725C306.016 85.8333 303.322 86.3781 300.601 86.3751C298.708 86.4354 296.823 86.1219 295.051 85.4519C293.444 84.8216 292.017 83.8 290.897 82.4778C289.75 81.1421 288.932 79.552 288.509 77.8369C288.056 75.9319 287.948 73.9601 288.191 72.0164C288.454 69.6181 289.093 67.2771 290.083 65.0808C291.141 62.7633 292.513 60.6056 294.16 58.6707C295.822 56.6535 297.91 55.0371 300.271 53.9403L300.297 53.9274ZM317.176 41.2995C314.977 40.7623 312.718 40.5124 310.456 40.556C306.405 40.597 302.394 41.4148 298.644 42.9663C294.688 44.6451 291.04 46.9904 287.861 49.9018C281.178 55.7127 276.97 63.8991 276.112 72.7602C275.679 76.1646 275.877 79.6208 276.696 82.952C277.45 85.9106 278.886 88.6475 280.888 90.939C282.875 93.2261 285.387 94.9865 288.204 96.067C291.434 97.2396 294.856 97.7835 298.29 97.6696C302.536 97.6412 306.741 96.8286 310.697 95.2722C318.617 91.9957 325.174 86.0645 329.267 78.4777C331.166 74.8145 332.361 70.8212 332.784 66.709C333.072 64.2989 333.072 61.8629 332.784 59.4529C332.509 57.2451 331.929 55.0875 331.059 53.0428C330.241 51.1008 329.127 49.3012 327.756 47.7096C326.398 46.1778 324.803 44.8789 323.031 43.8635C321.216 42.721 319.244 41.8569 317.176 41.2995Z" fill="white"/>
<path d="M233.759 29.3893L219.343 84.6568H228.78C247.896 84.6568 259.264 75.6827 261.931 55.5295C264.154 38.4402 257.93 29.3893 241.901 29.3893H233.759ZM223.598 17.1846H239.107C250.398 17.1846 256.126 18.4666 261.512 21.0306C273.756 26.9278 277.439 41.3888 275.674 55.0037C273.807 69.4137 266.059 85.285 252.164 92.1822C245.953 95.2716 240.326 96.8102 230.012 96.8102H202.819L223.598 17.1846Z" fill="white"/>
</g>
</svg>
